<svg width="138" height="388" viewBox="0 0 138 388" fill="none" xmlns="http://www.w3.org/2000/svg">
<path fill-rule="evenodd" clip-rule="evenodd" d="M82.6801 19.7616C84.3376 17.6645 87.3506 17.2428 89.5204 18.8031L131.403 48.9217C135.161 51.816 135.828 57.2242 132.887 60.9449C129.919 64.6994 124.442 65.2711 120.763 62.2108L83.1593 26.4849C81.2848 24.7048 81.0773 21.7888 82.6801 19.7616Z" fill="#FFC999"/>
<path fill-rule="evenodd" clip-rule="evenodd" d="M82.4598 11.8535C82.4598 11.8535 90.2831 16.8081 89.2199 22.1644C88.2577 27.0152 83.3041 26.6379 83.3041 26.6379C83.3041 26.6379 78.3194 27.0444 73.029 25.337C69.5433 24.2134 63.1313 21.4031 63.4747 19.4919C63.9218 17.0005 70.9933 20.6032 71.8527 18.974C72.7328 17.3024 71.3272 16.4496 68.7679 13.4591C67.1689 11.5894 64.8576 10.3762 63.8039 8.5329C61.7446 4.93021 71.3442 3.44348 82.4598 11.8535Z" fill="#FFC999"/>
<path d="M65.1439 7.19165C65.2247 7.00264 65.4434 6.9149 65.6324 6.99567C67.2681 7.69467 68.7125 8.56077 69.976 9.55659C71.2117 10.5305 72.2104 11.575 72.9927 12.6212C73.2677 12.989 73.4963 13.3314 73.681 13.6399L73.8212 13.8827C73.8585 13.9502 73.8864 14.0038 73.9053 14.0425C73.9953 14.2273 73.9185 14.4501 73.7337 14.5401C73.549 14.6301 73.3262 14.5533 73.2362 14.3685L73.1666 14.2369C73.1344 14.1789 73.0931 14.107 73.0424 14.0223C72.8705 13.7352 72.656 13.4139 72.3966 13.0669C71.6518 12.0709 70.6979 11.0733 69.5153 10.1412C68.3024 9.18522 66.9143 8.35291 65.3399 7.6801C65.1509 7.59933 65.0632 7.38065 65.1439 7.19165Z" fill="#DD936F"/>
<path d="M68.887 6.80108C68.9619 6.6097 69.1778 6.51534 69.3692 6.59032L69.5446 6.66323C69.5943 6.68471 69.651 6.70972 69.7144 6.7383L69.8144 6.78385C70.1607 6.94314 70.5458 7.13639 70.9599 7.36453C72.1419 8.01557 73.3236 8.81676 74.4277 9.77606C75.2756 10.5127 76.044 11.3154 76.714 12.1861C76.8393 12.349 76.8089 12.5827 76.646 12.708C76.4831 12.8333 76.2494 12.8029 76.1241 12.64C75.4856 11.8102 74.7514 11.0433 73.9396 10.3379C72.878 9.41561 71.7393 8.64353 70.6008 8.01648C70.2825 7.84112 69.9826 7.68751 69.7062 7.55525L69.5034 7.46006C69.307 7.36975 69.1686 7.3111 69.0977 7.28334C68.9063 7.20836 68.812 6.99245 68.887 6.80108Z" fill="#DD936F"/>
<path d="M73.5037 7.01808C73.6079 6.84091 73.836 6.78176 74.0132 6.88596C76.0271 8.0705 77.6017 9.28308 78.7875 10.4594C79.2056 10.8742 79.5456 11.2558 79.8138 11.5961L79.9404 11.7606C80.0341 11.8857 80.0986 11.9803 80.1364 12.0416C80.2442 12.2166 80.1897 12.4458 80.0147 12.5536C79.8397 12.6614 79.6105 12.6069 79.5027 12.4319L79.4575 12.3631C79.4092 12.2926 79.3339 12.1896 79.2293 12.0569C78.9796 11.7401 78.6598 11.3812 78.2633 10.9878C77.1216 9.85524 75.5963 8.68065 73.6358 7.52753C73.4586 7.42333 73.3995 7.19524 73.5037 7.01808Z" fill="#DD936F"/>
<path fill-rule="evenodd" clip-rule="evenodd" d="M59.6295 89.7341C72.5686 96.864 80.2268 87.6219 80.2268 87.6219C80.2268 87.6219 91.3169 87.2691 93.4291 79.1713C101.175 78.1157 103.491 68.4774 98.4733 60.2919C102.9 52.8016 94.7281 45.9915 94.7281 45.9915C98.4733 36.7984 92.3452 28.2856 87.2379 23.8593C81.4494 0.3659 68.1707 3.43087 68.1707 3.43087C62.8077 -3.71979 51.5713 3.94123 44.7612 13.4748C44.7612 13.4748 35.1427 15.603 37.8671 24.881C32.7598 28.2856 36.1644 33.0533 36.1644 33.0533C36.1644 33.0533 24.4177 44.7142 31.057 54.1629C22.8856 62.1644 29.3543 66.0803 29.3543 66.0803C29.3543 66.0803 27.226 73.996 39.2284 77.3157C37.4407 84.2107 50.7487 92.9585 59.6295 89.7341Z" fill="#253368"/>
<path fill-rule="evenodd" clip-rule="evenodd" d="M83.0605 33.2533C81.7417 36.0966 78.8541 37.8342 76.6051 36.7909C74.3552 35.7475 73.6033 32.5957 74.9221 29.7525C76.241 26.9082 79.1352 25.4489 81.3842 26.4922C83.6322 27.5356 84.3793 30.409 83.0605 33.2533Z" fill="#FFC999"/>
<path fill-rule="evenodd" clip-rule="evenodd" d="M46.0733 33.7336C47.3931 36.5778 50.2807 38.3146 52.5297 37.2712C54.7787 36.2278 55.5315 33.0761 54.2117 30.2328C52.8929 27.3886 49.9996 25.9301 47.7497 26.9726C45.5017 28.0168 44.7545 30.8903 46.0733 33.7336Z" fill="#FFC999"/>
<path fill-rule="evenodd" clip-rule="evenodd" d="M64.1186 63.5918C59.4226 63.5918 55.8557 59.707 56.0274 55.0138L57.2189 37.99L71.7759 37.8315L72.4013 55.0016C72.5721 59.6948 68.8147 63.5918 64.1186 63.5918Z" fill="#FFC999"/>
<path fill-rule="evenodd" clip-rule="evenodd" d="M78.9803 29.8184C78.3011 39.8039 73.3626 49.7365 64.1696 48.9705C57.2991 48.3979 49.7975 39.6831 49.7975 29.6741C49.7975 15.6944 55.0784 9.83333 63.2338 9.38901C72.5957 8.87865 79.9482 15.5803 78.9803 29.8184Z" fill="#FFC999"/>
<path d="M56.8345 45.6633C56.9511 45.5221 57.1601 45.5022 57.3013 45.6188C59.4326 47.3791 61.748 48.4307 63.9419 48.6137C66.6486 48.8393 69.0613 48.1196 71.1406 46.5477C71.2867 46.4373 71.4946 46.4661 71.605 46.6122C71.7155 46.7583 71.6866 46.9663 71.5405 47.0767C69.3324 48.746 66.7581 49.5139 63.8868 49.2746C61.5479 49.0795 59.1085 47.9716 56.879 46.1302C56.7378 46.0136 56.7179 45.8045 56.8345 45.6633Z" fill="#DD936F"/>
<path fill-rule="evenodd" clip-rule="evenodd" d="M75.9163 55.6101C86.2489 61.058 92.1675 47.7359 91.494 42.0757C90.2166 31.3507 84.5131 25.0509 84.5131 25.0509C78.1294 5.64412 67.8298 4.45172 57.7849 7.0903C43.7298 10.7836 37.9998 28.065 45.1873 29.8187C56.0133 32.4582 58.532 23.1925 60.1688 16.8795C61.3602 12.2835 65.0874 13.1372 66.4676 16.0286C66.8968 16.9286 67.9468 17.6267 69.5316 15.6881C71.0636 13.8155 72.9371 15.5173 73.2777 21.8171C73.6267 28.2904 75.8861 25.8 77.0228 28.797C78.8954 33.7336 71.9155 35.4364 74.1286 44.6294C74.1286 44.6294 66.3855 50.5848 75.9163 55.6101Z" fill="#253368"/>
<path d="M54.0134 22.4067C55.5722 21.6753 57.8628 21.5011 60.9486 22.1083C61.2252 22.1627 61.4053 22.431 61.3509 22.7076C61.2965 22.9841 61.0281 23.1642 60.7516 23.1098C57.8652 22.5419 55.7923 22.6995 54.447 23.3308C54.0617 23.5115 53.7734 23.7174 53.5911 23.9103L53.537 23.9712L53.5317 24.0287C53.5144 24.1362 53.4629 24.2381 53.3802 24.3169L53.3268 24.3613C53.1335 24.501 52.9017 24.5618 52.6514 24.3499C52.438 24.1691 52.4309 23.9729 52.4887 23.7695C52.5281 23.6309 52.6162 23.4833 52.7396 23.3333C53.014 23 53.4466 22.6726 54.0134 22.4067Z" fill="#253368"/>
<path d="M58.05 26.1577C59.6012 26.1624 60.784 27.7637 60.7786 29.6741C60.7778 29.9559 60.5486 30.1838 60.2668 30.183C59.9849 30.1822 59.7571 29.953 59.7579 29.6712C59.7618 28.2699 58.9576 27.1812 58.0469 27.1784C57.1353 27.1756 56.3241 28.2587 56.3193 29.6593C56.3183 29.9411 56.0891 30.1688 55.8072 30.1679C55.5253 30.1669 55.2976 29.9376 55.2986 29.6558C55.3051 27.7461 56.4983 26.1529 58.05 26.1577Z" fill="#253368"/>
<path d="M70.6482 26.1577C72.1993 26.1624 73.3821 27.7637 73.3767 29.6741C73.3759 29.9559 73.1468 30.1838 72.8649 30.183C72.5831 30.1822 72.3552 29.953 72.356 29.6712C72.36 28.2699 71.5558 27.1812 70.6451 27.1784C69.7334 27.1756 68.9222 28.2587 68.9174 29.6593C68.9165 29.9411 68.6872 30.1688 68.4053 30.1679C68.1235 30.1669 67.8958 29.9376 67.8967 29.6558C67.9033 27.7461 69.0964 26.1529 70.6482 26.1577Z" fill="#253368"/>
<path fill-rule="evenodd" clip-rule="evenodd" d="M81.0191 26.8869C81.0191 26.8869 79.6984 33.9281 78.4664 34.4564C79.1201 31.6829 78.239 23.7549 77.9371 23.3663C77.457 22.7427 80.9304 21.9578 81.0191 26.8869Z" fill="#253368"/>
<path fill-rule="evenodd" clip-rule="evenodd" d="M47.8171 25.6589C47.8171 25.6589 49.6878 35.3303 50.9481 35.7887C50.1378 33.0568 50.4142 22.3751 50.6934 21.9685C51.1387 21.3195 47.6256 20.7327 47.8171 25.6589Z" fill="#253368"/>
<path d="M67.226 22.6237C67.3762 22.4293 67.6556 22.3935 67.8499 22.5437C68.0266 22.6803 68.0723 22.9236 67.9663 23.1127L67.9299 23.1677L66.2415 25.3517L66.6572 34.2169C66.6681 34.4493 66.4989 34.6469 66.2752 34.6782L66.2129 34.6825H63.1479C62.9023 34.6825 62.7031 34.4833 62.7031 34.2377C62.7031 34.0125 62.8705 33.8264 63.0876 33.797L63.1479 33.7929L65.746 33.7928L65.346 25.2296C65.342 25.1452 65.3622 25.0619 65.4035 24.9892L65.4383 24.9368L67.226 22.6237Z" fill="#DD936F"/>
<path fill-rule="evenodd" clip-rule="evenodd" d="M60.5092 37.1943H69.0211C69.0211 37.1943 68.1702 39.748 64.7656 39.748C61.3601 39.748 60.5092 37.1943 60.5092 37.1943Z" fill="white"/>
<path d="M69.021 36.7071H60.5091C60.1766 36.7071 59.9417 37.0329 60.0468 37.3484C60.1753 37.7338 60.477 38.277 61.0157 38.8157C61.9037 39.7037 63.1442 40.2353 64.7655 40.2353C66.3865 40.2353 67.6268 39.7036 68.5146 38.8157C69.0532 38.277 69.3549 37.7338 69.4833 37.3484C69.5884 37.0329 69.3536 36.7071 69.021 36.7071ZM68.2024 37.6813L68.0951 37.8249C68.0134 37.9274 67.9237 38.0284 67.8254 38.1267C67.1175 38.8348 66.1236 39.2608 64.7655 39.2608C63.407 39.2608 62.4129 38.8347 61.7048 38.1266L61.5637 37.9774C61.5188 37.927 61.4759 37.8761 61.4351 37.8248L61.3272 37.6813H68.2024Z" fill="#F5222D"/>
<path d="M67.8595 22.1887C70.3832 21.4675 72.7015 21.6581 74.698 22.4146C75.3693 22.669 75.8504 22.9269 76.1175 23.1076C76.3509 23.2655 76.4122 23.5828 76.2542 23.8163C76.0963 24.0498 75.779 24.111 75.5456 23.9531L75.4824 23.9129C75.4283 23.8799 75.3502 23.8348 75.2491 23.7806C74.9889 23.6411 74.6836 23.5007 74.3363 23.3691C72.5338 22.6861 70.437 22.5137 68.14 23.1701C67.869 23.2476 67.5865 23.0907 67.509 22.8197C67.4316 22.5487 67.5885 22.2662 67.8595 22.1887Z" fill="#253368"/>
<path fill-rule="evenodd" clip-rule="evenodd" d="M50.4815 352.803C46.2769 352.902 42.745 349.663 42.4799 345.467L36.7905 255.696C36.382 249.23 41.4318 243.72 47.9099 243.568C54.3888 243.416 59.6934 248.681 59.5877 255.16L58.1293 345.098C58.0614 349.304 54.6851 352.704 50.4815 352.803Z" fill="#FFC999"/>
<path fill-rule="evenodd" clip-rule="evenodd" d="M45.937 159.719C38.3043 159.898 32.3159 166.327 32.6762 173.953L36.5591 255.948C36.8581 262.264 42.1428 267.186 48.4633 267.038C54.7838 266.889 59.8308 261.723 59.8318 255.401L59.8525 173.313C59.8544 165.679 53.5707 159.539 45.937 159.719Z" fill="#FFC999"/>
<path fill-rule="evenodd" clip-rule="evenodd" d="M42.6573 357.034L57.4265 357.224L58.5604 333.874L41.6045 333.654L42.6573 357.034Z" fill="#3579DC"/>
<path d="M41.7322 337.832L57.3872 338.035C57.655 338.039 57.8693 338.258 57.8658 338.526C57.8626 338.772 57.6776 338.972 57.4405 339.001L57.3747 339.005L41.7196 338.802C41.4518 338.798 41.2376 338.579 41.241 338.311C41.2442 338.065 41.4293 337.865 41.6663 337.836L41.7322 337.832Z" fill="#E4EBF7"/>
<path fill-rule="evenodd" clip-rule="evenodd" d="M41.1972 356.094L57.4352 356.304L57.8701 386.06L21.2829 385.585L21.2517 381.018C21.247 379.338 22.4451 377.897 24.0969 377.596L33.8465 374.866L38.8737 372.09C40.3887 371.253 41.3189 369.658 41.2953 367.927C41.2462 364.21 41.1698 357.904 41.1972 356.094Z" fill="#4E5C93"/>
<path fill-rule="evenodd" clip-rule="evenodd" d="M57.5042 387.025L21.0273 386.551C20.682 386.548 20.4056 386.263 20.4093 385.918L20.4622 381.827C20.4669 381.481 20.7509 381.204 21.0971 381.208L57.574 381.682C57.9192 381.687 58.1956 381.971 58.1919 382.316L58.139 386.407C58.1343 386.752 57.8504 387.03 57.5042 387.025Z" fill="#E4EBF7"/>
<path fill-rule="evenodd" clip-rule="evenodd" d="M21.0972 381.209C21.1302 378.63 23.0292 376.457 25.58 376.079L33.8476 374.852L34.3099 381.29L21.0972 381.209Z" fill="#E4EBF7"/>
<path d="M21.1005 380.961L57.5773 381.433C57.7144 381.435 57.824 381.547 57.8222 381.684C57.8207 381.804 57.7343 381.903 57.621 381.925L57.5709 381.929L21.094 381.457C20.957 381.455 20.8474 381.342 20.8491 381.205C20.8507 381.086 20.937 380.987 21.0504 380.965L21.1005 380.961Z" fill="#A3B5D6"/>
<path d="M40.9754 366.8C41.0353 366.533 41.3007 366.365 41.5681 366.425L41.7228 366.463C41.8987 366.509 42.1362 366.581 42.4191 366.682C43.045 366.905 43.6711 367.194 44.2587 367.558C44.9029 367.958 45.4618 368.424 45.9091 368.966C46.178 369.292 45.9426 369.784 45.5201 369.778C45.0697 369.773 44.3696 369.861 43.5003 370.025C43.3026 370.062 43.0985 370.102 42.8893 370.146L42.3495 370.262L41.7262 370.405L41.8332 370.495C42.2189 370.829 42.6015 371.207 42.9685 371.629L43.1867 371.888C43.3154 372.046 43.4403 372.207 43.5612 372.372C43.8175 372.724 43.5306 373.211 43.0993 373.158C42.5542 373.09 41.9065 373.082 41.1792 373.127C40.5368 373.167 39.8549 373.246 39.1581 373.356L38.708 373.43L38.8262 373.505C38.8763 373.539 38.9265 373.573 38.9768 373.609L39.1279 373.72C39.5674 374.056 39.9525 374.462 40.2666 374.947C40.4156 375.177 40.35 375.484 40.1201 375.633C39.8901 375.782 39.5828 375.717 39.4338 375.487C39.1838 375.101 38.8774 374.777 38.526 374.509C38.1704 374.238 37.7878 374.037 37.4059 373.898L37.2271 373.836C37.0907 373.793 36.9868 373.768 36.926 373.758C36.3942 373.669 36.3659 372.916 36.8895 372.787L37.2574 372.703L37.3637 372.68C37.7333 372.6 38.1394 372.521 38.5701 372.447C39.4451 372.296 40.3072 372.187 41.1177 372.137C41.4117 372.118 41.6949 372.108 41.9663 372.107L42.0639 372.107L42.0168 372.054C41.7446 371.758 41.4648 371.489 41.1836 371.245L40.9727 371.067C40.8442 370.962 40.7231 370.868 40.611 370.786L40.4162 370.648C40.3797 370.624 40.3532 370.606 40.3375 370.597C39.967 370.368 40.0499 369.807 40.4707 369.695L41.0273 369.553C41.4547 369.448 41.9061 369.342 42.3616 369.243C42.6912 369.172 43.011 369.107 43.3171 369.049C43.6269 368.991 43.9171 368.942 44.1862 368.902L44.3996 368.872L44.3279 368.813C44.2044 368.717 44.0754 368.624 43.9411 368.534L43.7358 368.402C43.2132 368.078 42.6497 367.818 42.0861 367.617C41.9382 367.564 41.7986 367.519 41.6693 367.48L41.3509 367.393C41.0835 367.333 40.9154 367.068 40.9754 366.8Z" fill="#E4EBF7"/>
<path d="M41.5196 362.044C41.463 362.043 41.4068 362.053 41.3534 362.071C40.4332 362.392 40.1598 363.069 40.5468 363.752C40.7144 364.048 40.9653 364.297 41.2233 364.495L41.3469 364.586L41.6031 364.81L41.9035 365.065C42.0609 365.197 42.2289 365.337 42.4062 365.484C43.2509 366.18 44.137 366.876 45.0231 367.527C45.5463 367.911 46.0548 368.269 46.544 368.594C48.187 369.686 49.5324 370.368 50.5273 370.532C51.9581 370.768 52.7091 369.909 52.4465 368.199C52.0374 365.531 49.9536 363.814 46.8068 362.853C45.7063 362.517 44.539 362.295 43.3674 362.165C43.047 362.129 42.7395 362.102 42.4484 362.082L42.1629 362.065C42.0113 362.057 41.8766 362.052 41.7606 362.048L41.5196 362.044ZM41.544 363.057L41.5985 363.037L41.8112 363.042C42.1927 363.055 42.6863 363.088 43.2578 363.151C44.3724 363.275 45.4808 363.486 46.5169 363.802C49.3383 364.664 51.1263 366.137 51.4655 368.349L51.4959 368.575C51.5962 369.461 51.3616 369.664 50.6888 369.553C49.8737 369.419 48.6251 368.786 47.0933 367.767C46.6179 367.451 46.1219 367.103 45.6105 366.727C44.7408 366.088 43.8689 365.403 43.0375 364.718L42.5429 364.306L41.9592 363.807L41.9062 363.766C41.7242 363.637 41.5103 363.44 41.4103 363.263L41.3795 363.205C41.3506 363.14 41.3775 363.117 41.544 363.057Z" fill="#E4EBF7"/>
<path fill-rule="evenodd" clip-rule="evenodd" d="M104.505 351.494C108.679 350.977 111.7 348.201 111.349 344.011L103.855 253.43C103.314 246.973 97.5123 242.261 91.0815 243.056C84.6506 243.852 80.1724 249.837 81.2233 256.231L96.7558 345.933C97.4378 350.083 100.331 352.01 104.505 351.494Z" fill="#FFC999"/>
<path fill-rule="evenodd" clip-rule="evenodd" d="M80.7777 159.82C88.3548 158.881 95.2187 164.366 95.9752 171.963L104.12 253.644C104.748 259.935 100.24 265.578 93.9649 266.355C87.6906 267.131 81.9428 262.759 81.0173 256.504L68.9989 175.303C67.881 167.749 73.2006 160.757 80.7777 159.82Z" fill="#FFC999"/>
<path fill-rule="evenodd" clip-rule="evenodd" d="M113.482 354.089L97.7723 354.421L93.6064 331.082L110.56 330.701L113.482 354.089Z" fill="#3579DC"/>
<path d="M110.451 334.88C110.719 334.874 110.941 335.086 110.947 335.354C110.952 335.599 110.775 335.806 110.539 335.843L110.473 335.849L94.8209 336.201C94.5531 336.207 94.3312 335.995 94.3251 335.727C94.3197 335.482 94.4975 335.275 94.7334 335.237L94.7991 335.232L110.451 334.88Z" fill="#E4EBF7"/>
<path fill-rule="evenodd" clip-rule="evenodd" d="M113.706 353.135L97.4717 353.5L100.433 383.259L137.014 382.436L137.001 377.868C136.992 376.189 135.779 374.759 134.125 374.474L124.349 371.837L119.296 369.108C117.774 368.287 116.436 366.612 115.89 364.97C114.882 361.933 113.751 354.946 113.706 353.135Z" fill="#4E5C93"/>
<path fill-rule="evenodd" clip-rule="evenodd" d="M100.807 384.22L137.279 383.399C137.624 383.392 137.897 383.105 137.891 382.76L137.798 378.669C137.791 378.324 137.503 378.05 137.158 378.058L100.688 378.878C100.341 378.885 100.068 379.172 100.075 379.518L100.167 383.608C100.175 383.954 100.462 384.228 100.807 384.22Z" fill="#E4EBF7"/>
<path fill-rule="evenodd" clip-rule="evenodd" d="M137.158 378.058C137.1 375.481 135.18 373.325 132.626 372.97L124.348 371.823L123.946 378.265L137.158 378.058Z" fill="#E4EBF7"/>
<path d="M137.153 377.81C137.29 377.807 137.403 377.915 137.406 378.052C137.409 378.172 137.326 378.274 137.214 378.3L137.164 378.306L100.693 379.126C100.556 379.129 100.443 379.02 100.44 378.883C100.437 378.763 100.52 378.662 100.632 378.636L100.682 378.63L137.153 377.81Z" fill="#A3B5D6"/>
<path d="M116.547 363.469C116.814 363.406 117.081 363.572 117.143 363.839C117.201 364.083 117.066 364.328 116.838 364.415L116.583 364.487C116.422 364.534 116.241 364.592 116.046 364.664C115.488 364.868 114.93 365.132 114.413 365.458C114.203 365.59 114.004 365.73 113.819 365.877L113.738 365.943L113.757 365.946C114.016 365.978 114.297 366.02 114.598 366.071L114.827 366.111C115.141 366.167 115.47 366.231 115.808 366.301C116.109 366.364 116.407 366.429 116.698 366.495L117.625 366.717C117.644 366.721 117.661 366.726 117.676 366.73C118.074 366.832 118.175 367.337 117.875 367.588L117.656 367.741C117.517 367.841 117.361 367.961 117.193 368.101C116.847 368.39 116.5 368.719 116.166 369.088L116.106 369.156L116.209 369.155C116.391 369.155 116.578 369.158 116.771 369.165L117.063 369.178C117.887 369.221 118.764 369.325 119.653 369.471C119.967 369.522 120.268 369.577 120.55 369.632L121.022 369.728C121.139 369.753 121.228 369.773 121.286 369.787C121.787 369.904 121.791 370.597 121.328 370.741L121.167 370.778C121.075 370.801 120.944 370.841 120.786 370.9C120.409 371.042 120.031 371.243 119.68 371.514C119.326 371.787 119.017 372.118 118.768 372.511C118.621 372.742 118.314 372.811 118.083 372.664C117.852 372.517 117.783 372.21 117.93 371.979C118.243 371.485 118.631 371.07 119.074 370.728C119.173 370.651 119.273 370.58 119.372 370.513L119.473 370.447L119.066 370.383C118.499 370.299 117.942 370.235 117.407 370.194L117.01 370.169C116.278 370.13 115.627 370.144 115.08 370.217C114.649 370.275 114.358 369.79 114.611 369.436C114.735 369.262 114.865 369.092 114.998 368.927C115.423 368.4 115.874 367.936 116.329 367.535L116.426 367.451L116.045 367.366L115.607 367.273C115.277 367.205 114.958 367.142 114.653 367.088L114.263 367.022C113.571 366.91 113.01 366.852 112.628 366.861C112.206 366.871 111.966 366.382 112.231 366.053C112.677 365.502 113.237 365.026 113.884 364.618C114.465 364.252 115.085 363.959 115.705 363.732L115.969 363.639C116.217 363.555 116.416 363.5 116.547 363.469Z" fill="#E4EBF7"/>
<path d="M116.555 359.088L116.303 359.095C115.919 359.109 115.409 359.145 114.808 359.215C113.639 359.35 112.469 359.578 111.363 359.92C108.177 360.905 106.074 362.648 105.686 365.346C105.44 367.057 106.196 367.909 107.621 367.663C108.612 367.492 109.947 366.801 111.576 365.697C112.063 365.367 112.57 365.005 113.091 364.615C113.973 363.954 114.855 363.247 115.697 362.54L116.197 362.115L116.794 361.595C116.864 361.55 117.027 361.418 117.193 361.247C117.465 360.966 117.649 360.676 117.695 360.351C117.776 359.789 117.413 359.348 116.721 359.114C116.668 359.096 116.612 359.087 116.555 359.088ZM116.478 360.082C116.584 360.123 116.651 360.162 116.69 360.195L116.711 360.217C116.703 360.281 116.619 360.413 116.48 360.557C116.365 360.675 116.248 360.77 116.178 360.819L115.551 361.363C115.397 361.495 115.232 361.635 115.058 361.781C114.23 362.476 113.362 363.172 112.496 363.82C111.987 364.201 111.493 364.555 111.02 364.876C109.502 365.904 108.263 366.545 107.452 366.685C106.731 366.81 106.514 366.565 106.668 365.488C106.99 363.249 108.797 361.752 111.656 360.868C112.698 360.546 113.81 360.33 114.922 360.2L115.325 360.157C115.711 360.12 116.044 360.098 116.311 360.087L116.478 360.082Z" fill="#E4EBF7"/>
<path fill-rule="evenodd" clip-rule="evenodd" d="M82.7676 130.857C87.2372 130.978 92.5842 144.162 99.433 155.572C108.351 170.429 118.829 185.382 123.161 196.299C122.141 200.187 113.246 209.757 113.246 209.757C113.246 209.757 114.959 213.21 115.37 215.069C105.453 228.172 91.6842 229.759 91.6842 229.759L91.6531 232.418C69.1134 242.796 38.9306 232.85 38.9306 232.85C38.9306 232.85 38.3674 232.273 38.7712 230.188C28.5376 230.069 6.62432 217.086 6.62432 217.086L9.73929 210.662L0.72644 201.438C0.72644 201.438 28.6046 161.507 33.5619 147.78C38.1655 135.032 45.3021 129.98 45.3021 129.98C45.3021 129.98 67.571 130.445 82.7676 130.857Z" fill="#4E5C93"/>
<path d="M43.8658 140.552C43.958 140.364 44.1854 140.286 44.3738 140.378C44.5433 140.461 44.6234 140.654 44.5705 140.829L44.5479 140.886L7.48795 216.595L7.83495 216.85L8.12494 217.058C8.85694 217.578 9.71978 218.157 10.708 218.782C13.5341 220.568 16.7957 222.354 20.4486 224.022C26.1278 226.615 32.2216 228.675 38.6565 230.004C38.8619 230.047 38.994 230.248 38.9516 230.453C38.9091 230.658 38.7083 230.79 38.5029 230.748C32.0095 229.407 25.8621 227.328 20.1332 224.713C16.4479 223.03 13.1564 221.227 10.3023 219.424C9.41348 218.862 8.62405 218.336 7.93784 217.855L7.68536 217.677C7.47687 217.529 7.29069 217.395 7.12717 217.274L6.77531 217.009C6.65166 216.912 6.60201 216.751 6.64437 216.605L6.66822 216.543L43.8658 140.552Z" fill="#253368"/>
<path d="M93.9813 162.302C94.1568 162.233 94.3531 162.303 94.4469 162.46L94.4741 162.515L115.369 215.284C115.417 215.405 115.399 215.542 115.323 215.647L115.192 215.821L115.018 216.043C114.987 216.083 114.954 216.124 114.92 216.166L114.814 216.297C114.398 216.807 113.904 217.374 113.335 217.985C111.708 219.727 109.795 221.468 107.608 223.094C102.933 226.567 97.6637 229.03 91.8455 230.039C91.6389 230.075 91.4423 229.936 91.4065 229.73C91.3707 229.523 91.5092 229.327 91.7158 229.291C97.4078 228.304 102.57 225.891 107.155 222.484C109.304 220.888 111.183 219.177 112.779 217.466C113.337 216.869 113.82 216.314 114.225 215.817L114.423 215.572L114.584 215.365L93.7681 162.795C93.6986 162.619 93.769 162.423 93.9259 162.329L93.9813 162.302Z" fill="#253368"/>
<path d="M73.0271 132.3C73.2327 132.259 73.4327 132.393 73.4738 132.598L74.3989 137.258C75.1347 140.979 75.9546 145.152 76.8375 149.681L77.9182 155.24C79.8977 165.451 81.8623 175.751 83.7305 185.763L84.7725 191.371C85.0375 192.805 85.299 194.224 85.5567 195.628L86.5862 201.269C88.7869 213.398 90.6263 224.011 92.0238 232.738C92.0531 232.921 91.9463 233.098 91.7711 233.157C90.665 233.533 89.5453 233.882 88.4126 234.202C74.7631 238.067 60.2022 237.848 46.4515 235.161L45.4597 234.962C43.8323 234.627 42.3338 234.277 40.979 233.925L40.5769 233.82C40.1455 233.705 39.7516 233.597 39.3968 233.495L38.6868 233.286C38.5735 233.252 38.4887 233.225 38.4333 233.207C38.2703 233.155 38.1653 233.001 38.1699 232.835L38.1777 232.772L55.1732 147.595C55.2143 147.389 55.4142 147.256 55.6199 147.297C55.805 147.334 55.9316 147.499 55.9251 147.682L55.918 147.743L38.9893 232.584L39.6062 232.765C39.9562 232.865 40.3451 232.973 40.7716 233.086C42.4795 233.539 44.4323 233.992 46.5972 234.415C60.2408 237.082 74.6878 237.299 88.2057 233.472C89.0458 233.234 89.8787 232.981 90.704 232.712L91.2224 232.539L90.7952 229.9C89.4708 221.799 87.8057 212.246 85.8561 201.499L84.8097 195.765L84.2895 192.938C84.0269 191.514 83.7607 190.076 83.4909 188.625C81.305 176.861 78.974 164.646 76.6326 152.602L74.8899 143.68L72.7292 132.747C72.6881 132.541 72.8214 132.341 73.0271 132.3Z" fill="#253368"/>
<path d="M65.7982 132.881C65.9868 132.886 66.14 133.027 66.1651 133.208L66.1685 133.27L64.3978 206.225C64.3928 206.434 64.2187 206.6 64.009 206.595C63.8204 206.591 63.6672 206.449 63.6421 206.268L63.6387 206.206L65.4093 133.252C65.4144 133.042 65.5885 132.876 65.7982 132.881Z" fill="#253368"/>
<path d="M53.3543 132.194C53.4166 131.994 53.6293 131.882 53.8296 131.944C54.0098 132 54.1185 132.178 54.0931 132.359L54.0796 132.419L39.083 180.701C39.0208 180.901 38.808 181.013 38.6077 180.951C38.4275 180.895 38.3188 180.717 38.3442 180.536L38.3578 180.475L53.3543 132.194Z" fill="#253368"/>
<path fill-rule="evenodd" clip-rule="evenodd" d="M43.6707 130.856L44.314 125.974C44.314 125.974 63.5925 126.089 82.4993 125.142C82.9776 127.309 83.5267 131.21 83.5267 131.21C81.9371 129.904 64.7623 133.717 43.6707 130.856Z" fill="#4E5C93"/>
<path d="M81.4965 130.83C81.706 130.82 81.8837 130.982 81.8935 131.192C81.9033 131.401 81.7415 131.579 81.532 131.589L79.5702 131.677C71.4171 132.028 63.5415 132.179 56.5271 132.165L54.452 132.156C52.2921 132.141 50.3554 132.109 48.7845 132.066L47.5705 132.028C47.0339 132.008 46.5921 131.988 46.2678 131.968L45.9075 131.941C45.8599 131.937 45.8185 131.933 45.7835 131.929C45.7156 131.921 45.6671 131.912 45.6231 131.899L45.5937 131.896C45.5581 131.887 45.5271 131.854 45.3719 131.688L45.4292 131.377C45.4719 131.174 45.499 131.171 45.6005 131.162C45.6798 131.134 45.7619 131.135 45.8363 131.158L45.8808 131.175L46.1292 131.197L46.5746 131.224C46.8093 131.237 47.0881 131.249 47.4051 131.261L48.2365 131.29C50.168 131.35 52.7609 131.392 55.6926 131.403L57.3733 131.407C64.7273 131.408 72.9873 131.228 81.4965 130.83Z" fill="#253368"/>
<path fill-rule="evenodd" clip-rule="evenodd" d="M25.5682 128.575C20.9174 127.425 18.0807 122.722 19.2297 118.072L30.4378 72.7497C31.5877 68.0999 36.2904 65.2613 40.9411 66.4113C45.5928 67.5622 48.4295 72.2648 47.2805 76.9147L36.0725 122.236C34.9216 126.887 30.2199 129.725 25.5682 128.575Z" fill="#FFC999"/>
<path fill-rule="evenodd" clip-rule="evenodd" d="M42.5284 96.1276L47.2801 76.9152C48.4254 72.2833 45.5736 67.557 40.9408 66.4118C36.3098 65.2666 31.5826 68.1183 30.4383 72.7502L25.7319 91.7806L42.5284 96.1276Z" fill="#3579DC"/>
<path d="M41.2561 66.1805C45.9839 67.3494 48.9196 72.1236 47.8604 76.8528L47.8147 77.0471L43.063 96.2595C43.0273 96.4036 42.8933 96.4971 42.7504 96.4868L42.6966 96.4779L25.9001 92.1309C25.7397 92.0894 25.6433 91.9257 25.6848 91.7653C25.7217 91.6228 25.8551 91.5308 25.997 91.5412L26.0504 91.5501L42.5532 95.8206L47.2322 76.903C48.322 72.4966 45.6609 67.9987 41.3026 66.8124L41.1121 66.7629C40.9512 66.7231 40.8531 66.5605 40.8929 66.3997C40.9282 66.2567 41.0606 66.1633 41.2026 66.1722L41.2561 66.1805Z" fill="#4E5C93"/>
<path fill-rule="evenodd" clip-rule="evenodd" d="M132.742 51.7883L133.062 52.4203C135.314 56.8655 133.537 62.2935 129.092 64.5463L88.0671 85.3351C83.622 87.5869 78.1929 85.8096 75.9402 81.3645L75.6204 80.7324C73.3686 76.2883 75.1449 70.8592 79.59 68.6074L120.616 47.8186C125.06 45.5659 130.489 47.3441 132.742 51.7883Z" fill="#FFC999"/>
<path fill-rule="evenodd" clip-rule="evenodd" d="M96.9346 59.8184L79.2806 68.7633C75.0241 70.9208 73.4487 76.4488 75.7807 81.0487C78.1118 85.6485 83.5012 87.6475 87.7567 85.4919L105.244 76.6309L96.9346 59.8184Z" fill="#3579DC"/>
<path d="M96.6708 59.2986C96.8083 59.229 96.9728 59.2709 97.0617 59.3903L97.0912 59.4386L105.4 76.2512C105.477 76.4055 105.413 76.5925 105.259 76.6688C105.122 76.7366 104.959 76.6942 104.871 76.5755L104.841 76.5274L96.6713 59.9968L79.2995 68.8007C75.2605 70.8471 73.7252 76.0632 75.8425 80.4748L75.9369 80.6661C76.0147 80.8197 75.9533 81.0073 75.7997 81.0852C75.6461 81.163 75.4585 81.1016 75.3807 80.948C73.0065 76.2632 74.5595 70.6357 78.8402 68.3371L79.0177 68.2445L96.6708 59.2986Z" fill="#4E5C93"/>
<path fill-rule="evenodd" clip-rule="evenodd" d="M86.3299 64.9985C82.0792 62.6081 77.0614 64.9202 74.6012 62.709C73.1465 61.4015 72.6456 55.2131 72.6456 55.2131H54.5019C54.5019 55.2131 54.0001 61.4015 52.5454 62.709C50.0861 64.9202 43.6137 63.5788 36.8347 67.2513C30.4359 70.7181 34.2754 80.2413 37.2054 88.1146C37.8828 89.9353 36.714 93.3654 37.846 95.8964C38.9846 98.4435 40.7157 101.527 41.4025 103.175C43.659 108.589 43.1948 114.422 44.6504 119.334C44.6504 119.334 42.3317 123.821 45.9928 125.641H81.1547C85.5451 123.638 82.4961 119.334 82.4961 119.334C83.8857 114.647 83.0423 110.866 85.1017 103.999C85.5139 102.626 87.0629 100.45 88.3836 97.5444C90.443 93.0125 90.0326 88.6637 89.7572 87.5656C87.1271 77.0839 92.4269 68.4286 86.3299 64.9985Z" fill="#3579DC"/>
<path d="M57.5323 63.2786L69.5592 63.3757C69.7248 63.3771 69.8581 63.5124 69.8567 63.6781C69.8555 63.8254 69.7484 63.947 69.6083 63.9713L69.5543 63.9757L57.5274 63.8785C57.3618 63.8772 57.2285 63.7418 57.2299 63.5761C57.2311 63.4288 57.3382 63.3072 57.4783 63.283L57.5323 63.2786Z" fill="#4E5C93"/>
<path d="M40.0473 77.3656C40.1184 77.216 40.2974 77.1523 40.447 77.2234C40.5967 77.2945 40.6603 77.4735 40.5892 77.6231L40.5027 77.8134L40.3498 78.1681C40.287 78.3176 40.2206 78.4801 40.1512 78.6553C39.8198 79.4911 39.4882 80.4384 39.1786 81.478C38.0571 85.2443 37.5152 89.172 37.8699 92.9848C38.148 95.967 39.1077 98.3958 41.4191 102.232L41.7954 102.849L41.8354 102.955L42.3015 105.574C42.5027 106.697 42.7055 107.82 42.9059 108.918L43.5958 112.648C44.2261 116.003 44.6962 118.335 44.9411 119.257C44.9611 119.333 44.9509 119.413 44.9127 119.481C43.5479 121.91 44.5413 125.009 45.9153 125.327L45.9935 125.342L81.1945 125.341L81.2844 125.287C81.2974 125.278 81.3111 125.269 81.3254 125.26L81.3933 125.213C81.5969 125.069 81.8013 124.887 81.9923 124.667C82.9997 123.506 83.2438 121.816 82.2206 119.454C82.1966 119.398 82.1899 119.337 82.2013 119.278L82.4615 117.914C83.1853 114.094 83.7955 110.628 84.2976 107.563L84.5964 105.703C84.6505 105.359 84.7012 105.032 84.7486 104.722L84.9553 103.331L85.0055 103.202C87.9547 98.9284 89.2516 95.5424 89.4574 91.7606C89.6447 88.314 89.0151 84.8876 87.8496 81.6633C87.4907 80.6705 87.1063 79.7714 86.7223 78.9823L86.5663 78.668C86.516 78.5687 86.4674 78.4749 86.4209 78.3867L86.2551 78.0816C86.2384 78.052 86.2251 78.0289 86.2155 78.0126C86.1314 77.8698 86.179 77.6859 86.3218 77.6019C86.4646 77.5178 86.6485 77.5655 86.7325 77.7082L86.8409 77.901L86.8804 77.9737C86.9957 78.1871 87.1239 78.4365 87.2618 78.7197C87.6548 79.5272 88.0475 80.4458 88.4138 81.4593C89.6048 84.754 90.2487 88.2579 90.0565 91.7932C89.8495 95.5964 88.5738 99.0087 85.7218 103.218L85.539 103.484L85.3881 104.508L85.2422 105.457C85.1383 106.124 85.0209 106.859 84.8897 107.66L84.7077 108.76C84.2104 111.738 83.6166 115.065 82.9219 118.705L82.807 119.301L82.8608 119.428C83.8402 121.824 83.5892 123.653 82.5402 124.947L82.4455 125.06C82.0989 125.46 81.7502 125.723 81.4865 125.867L81.4019 125.911L81.2704 125.942L45.949 125.938C44.063 125.655 42.8533 122.122 44.3104 119.333L44.3306 119.295L44.2107 118.794C43.9519 117.667 43.5598 115.698 43.0638 113.066L42.7612 111.447C42.5179 110.136 42.266 108.759 42.0136 107.362L41.2539 103.115L41.0902 102.847C38.6659 98.8671 37.6219 96.3401 37.2967 93.2829L37.2725 93.0404C36.9099 89.1421 37.4619 85.1409 38.6036 81.3067C38.9184 80.2496 39.2558 79.2858 39.5934 78.4342L39.7313 78.0929C39.7758 77.9848 39.8188 77.8825 39.8601 77.7862L40.0098 77.4465C40.0253 77.4125 40.0379 77.3855 40.0473 77.3656Z" fill="#4E5C93"/>
<path d="M84.5383 94.1288C84.704 94.1288 84.8383 94.2632 84.8383 94.4288C84.8383 94.5761 84.7322 94.6986 84.5923 94.724L84.5383 94.7288H41.1419C40.9762 94.7288 40.8419 94.5945 40.8419 94.4288C40.8419 94.2816 40.948 94.1591 41.088 94.1337L41.1419 94.1288H84.5383Z" fill="#4E5C93"/>
<path d="M52.175 62.4928C52.3304 62.3853 52.5378 62.4096 52.6648 62.5414L52.7039 62.5893L63.414 78.081L74.6066 62.8549C74.7186 62.7026 74.9225 62.6579 75.0855 62.7412L75.1381 62.7737C75.2904 62.8856 75.335 63.0896 75.2518 63.2526L75.2193 63.3052L63.7112 78.9612C63.5695 79.154 63.2922 79.1663 63.1326 79.0015L63.0922 78.9522L52.0785 63.0217C51.9591 62.849 52.0023 62.6122 52.175 62.4928Z" fill="#E4EBF7"/>
<path fill-rule="evenodd" clip-rule="evenodd" d="M69.5845 84.3881C69.5845 87.8766 66.7563 90.7048 63.2677 90.7048C59.7783 90.7048 56.9501 87.8766 56.9501 84.3881C56.9501 80.8995 59.7783 78.0714 63.2677 78.0714C66.7563 78.0714 69.5845 80.8995 69.5845 84.3881Z" fill="#E4EBF7"/>
<path fill-rule="evenodd" clip-rule="evenodd" d="M67.8286 84.388C67.8286 86.9068 65.7862 88.9492 63.2674 88.9492C60.7477 88.9492 58.7063 86.9068 58.7063 84.388C58.7063 81.8693 60.7477 79.8269 63.2674 79.8269C65.7862 79.8269 67.8286 81.8693 67.8286 84.388Z" fill="#FAAD14"/>
<path fill-rule="evenodd" clip-rule="evenodd" d="M58.1159 201.906L4.55946 189.563C2.76614 189.15 1.64826 187.363 2.06145 185.57L10.8253 147.542C11.2384 145.75 13.0261 144.632 14.8185 145.045L68.3758 157.388C70.1673 157.801 71.2861 159.589 70.8729 161.382L62.1091 199.409C61.6959 201.201 59.9082 202.319 58.1159 201.906Z" fill="#3579DC"/>
<path fill-rule="evenodd" clip-rule="evenodd" d="M57.5851 203.765L4.0278 191.423C2.23447 191.01 1.11753 189.222 1.52978 187.429L10.2936 149.403C10.7068 147.61 12.4944 146.491 14.2878 146.904L67.8442 159.247C69.6366 159.661 70.7544 161.448 70.3412 163.241L61.5774 201.268C61.1652 203.06 59.3766 204.179 57.5851 203.765Z" fill="#253368"/>
<path fill-rule="evenodd" clip-rule="evenodd" d="M28.3108 176.599C25.6392 176.69 23.3695 174.664 23.1572 172L19.0592 120.575C18.8394 115.837 22.5336 111.832 27.274 111.67C32.0569 111.508 36.0341 115.317 36.0765 120.102L33.1304 171.887C32.9842 174.468 30.8937 176.511 28.3108 176.599Z" fill="#FFC999"/>
<path fill-rule="evenodd" clip-rule="evenodd" d="M21.5201 182.133C21.5201 182.133 20.4871 169.307 24.7077 165.842C28.5293 162.704 33.197 168.205 33.197 168.205C33.197 168.205 34.9781 171.154 37.1035 175.759C38.6383 179.084 40.9977 186.383 38.6968 185.852C36.2309 185.283 35.9667 180.179 34.2696 180.894C32.5272 181.627 33.4819 184.75 33.5621 188.685C33.6112 191.144 34.6253 191.019 34.2696 193.112C33.5753 197.203 24.1323 196.351 21.5201 182.133Z" fill="#FFC999"/>
<path d="M30.2747 184.071C30.4758 184.114 30.6042 184.312 30.5615 184.513L30.5466 184.594C30.538 184.645 30.5281 184.713 30.5178 184.796L30.5073 184.885C30.2367 187.292 30.7382 190.501 32.652 194.18C32.7469 194.363 32.676 194.587 32.4936 194.682C32.3113 194.777 32.0866 194.706 31.9917 194.524C30.0059 190.706 29.4813 187.349 29.7677 184.802L29.7914 184.611C29.807 184.497 29.8218 184.413 29.8334 184.358C29.8718 184.177 30.0357 184.055 30.2146 184.064L30.2747 184.071Z" fill="#DD936F"/>
<path d="M27.0346 183.886C27.2397 183.9 27.3949 184.077 27.3812 184.283C27.222 186.666 27.696 189.235 28.5855 191.785C28.8561 192.561 29.1461 193.277 29.4358 193.916C29.5116 194.083 29.5833 194.236 29.6498 194.373L29.8173 194.708C29.9141 194.889 29.8455 195.114 29.6642 195.211C29.4828 195.308 29.2574 195.239 29.1606 195.058L29.0477 194.836C28.9601 194.659 28.8626 194.455 28.7579 194.224C28.4593 193.565 28.161 192.828 27.8827 192.03C26.9629 189.393 26.4717 186.731 26.6385 184.233C26.6522 184.028 26.8296 183.873 27.0346 183.886Z" fill="#DD936F"/>
<path d="M23.9992 183.178C24.2048 183.178 24.3714 183.344 24.3714 183.55L24.3765 183.794C24.3793 183.875 24.3834 183.971 24.3891 184.081C24.4114 184.51 24.4516 184.989 24.5142 185.506C24.6929 186.98 25.0145 188.453 25.5132 189.824C25.7793 190.556 26.0899 191.239 26.4477 191.865C26.5497 192.043 26.4877 192.271 26.3093 192.373C26.1308 192.475 25.9035 192.413 25.8015 192.234C25.4217 191.57 25.0937 190.848 24.8137 190.079C24.2937 188.649 23.9604 187.122 23.7753 185.595C23.7106 185.061 23.6689 184.565 23.6458 184.119L23.63 183.734C23.6279 183.657 23.6271 183.596 23.6271 183.55C23.6271 183.344 23.7937 183.178 23.9992 183.178Z" fill="#DD936F"/>
</svg>
