<svg width="16" height="21" viewBox="0 0 16 21" fill="none" xmlns="http://www.w3.org/2000/svg">
<path d="M0.378 21V0.5H6.118L6.61 4.026H6.774C7.53933 2.632 8.44133 1.62067 9.48 0.991999C10.546 0.335999 11.5847 0.007999 12.596 0.007999C13.2247 0.007999 13.7303 0.0489993 14.113 0.131C14.4957 0.185666 14.8373 0.281332 15.138 0.417999L13.99 6.486C13.6073 6.404 13.2383 6.33567 12.883 6.281C12.555 6.199 12.1587 6.158 11.694 6.158C10.956 6.158 10.177 6.41767 9.357 6.937C8.56433 7.429 7.922 8.31733 7.43 9.602V21H0.378Z" fill="#3579DC"/>
</svg>
