<svg width="159" height="64" viewBox="0 0 159 64" fill="none" xmlns="http://www.w3.org/2000/svg">
<rect x="8.5" y="8.5" width="142" height="47.001" rx="3.5" fill="#373D3F"/>
<rect x="8.5" y="8.5" width="142" height="47.001" rx="3.5" stroke="#373D3F"/>
<path d="M71.5 8L87.5 8L79.5 0L71.5 8Z" fill="#373D3F"/>
<path d="M71.5 9.5L87.5 9.5L79.5 1.5L71.5 9.5Z" fill="#373D3F"/>
<path d="M30.192 28.601C30.272 28.601 30.312 28.641 30.312 28.721V29.237C30.312 29.317 30.272 29.357 30.192 29.357H27.84C27.808 29.357 27.792 29.373 27.792 29.405V36.881C27.792 36.961 27.752 37.001 27.672 37.001H27.06C26.98 37.001 26.94 36.961 26.94 36.881V29.405C26.94 29.373 26.924 29.357 26.892 29.357H24.636C24.556 29.357 24.516 29.317 24.516 29.237V28.721C24.516 28.641 24.556 28.601 24.636 28.601H30.192ZM33.2643 37.097C32.6883 37.097 32.1923 36.949 31.7763 36.653C31.3603 36.357 31.0723 35.949 30.9123 35.429C30.8003 35.061 30.7443 34.569 30.7443 33.953C30.7443 33.337 30.8003 32.849 30.9123 32.489C31.0643 31.977 31.3483 31.573 31.7643 31.277C32.1803 30.981 32.6843 30.833 33.2763 30.833C33.8443 30.833 34.3323 30.981 34.7403 31.277C35.1563 31.573 35.4403 31.973 35.5923 32.477C35.7043 32.821 35.7603 33.313 35.7603 33.953C35.7603 34.601 35.7043 35.093 35.5923 35.429C35.4403 35.949 35.1563 36.357 34.7403 36.653C34.3323 36.949 33.8403 37.097 33.2643 37.097ZM33.2643 36.353C33.6483 36.353 33.9763 36.249 34.2483 36.041C34.5203 35.825 34.7043 35.537 34.8003 35.177C34.8723 34.889 34.9083 34.485 34.9083 33.965C34.9083 33.437 34.8763 33.033 34.8123 32.753C34.7163 32.393 34.5283 32.109 34.2483 31.901C33.9763 31.685 33.6443 31.577 33.2523 31.577C32.8603 31.577 32.5283 31.685 32.2563 31.901C31.9843 32.109 31.8003 32.393 31.7043 32.753C31.6403 33.033 31.6083 33.437 31.6083 33.965C31.6083 34.493 31.6403 34.897 31.7043 35.177C31.7923 35.537 31.9723 35.825 32.2443 36.041C32.5243 36.249 32.8643 36.353 33.2643 36.353ZM39.8033 37.097C39.2273 37.097 38.7313 36.949 38.3153 36.653C37.8993 36.357 37.6113 35.949 37.4513 35.429C37.3393 35.061 37.2833 34.569 37.2833 33.953C37.2833 33.337 37.3393 32.849 37.4513 32.489C37.6033 31.977 37.8873 31.573 38.3033 31.277C38.7193 30.981 39.2233 30.833 39.8153 30.833C40.3833 30.833 40.8713 30.981 41.2793 31.277C41.6953 31.573 41.9793 31.973 42.1313 32.477C42.2433 32.821 42.2993 33.313 42.2993 33.953C42.2993 34.601 42.2433 35.093 42.1313 35.429C41.9793 35.949 41.6953 36.357 41.2793 36.653C40.8713 36.949 40.3793 37.097 39.8033 37.097ZM39.8033 36.353C40.1873 36.353 40.5153 36.249 40.7873 36.041C41.0593 35.825 41.2433 35.537 41.3393 35.177C41.4113 34.889 41.4473 34.485 41.4473 33.965C41.4473 33.437 41.4153 33.033 41.3513 32.753C41.2553 32.393 41.0673 32.109 40.7873 31.901C40.5153 31.685 40.1833 31.577 39.7913 31.577C39.3993 31.577 39.0673 31.685 38.7953 31.901C38.5233 32.109 38.3393 32.393 38.2433 32.753C38.1793 33.033 38.1473 33.437 38.1473 33.965C38.1473 34.493 38.1793 34.897 38.2433 35.177C38.3313 35.537 38.5113 35.825 38.7833 36.041C39.0633 36.249 39.4033 36.353 39.8033 36.353ZM44.1464 37.001C44.0664 37.001 44.0264 36.961 44.0264 36.881V28.721C44.0264 28.641 44.0664 28.601 44.1464 28.601H44.7584C44.8384 28.601 44.8784 28.641 44.8784 28.721V36.881C44.8784 36.961 44.8384 37.001 44.7584 37.001H44.1464ZM49.516 31.517C49.516 31.597 49.476 31.637 49.396 31.637H48.04C48.008 31.637 47.992 31.653 47.992 31.685V35.225C47.992 35.609 48.076 35.881 48.244 36.041C48.42 36.193 48.692 36.269 49.06 36.269H49.36C49.44 36.269 49.48 36.309 49.48 36.389V36.881C49.48 36.961 49.44 37.001 49.36 37.001C49.264 37.009 49.116 37.013 48.916 37.013C48.34 37.013 47.904 36.905 47.608 36.689C47.312 36.473 47.164 36.073 47.164 35.489V31.685C47.164 31.653 47.148 31.637 47.116 31.637H46.384C46.304 31.637 46.264 31.597 46.264 31.517V31.049C46.264 30.969 46.304 30.929 46.384 30.929H47.116C47.148 30.929 47.164 30.913 47.164 30.881V29.489C47.164 29.409 47.204 29.369 47.284 29.369H47.872C47.952 29.369 47.992 29.409 47.992 29.489V30.881C47.992 30.913 48.008 30.929 48.04 30.929H49.396C49.476 30.929 49.516 30.969 49.516 31.049V31.517ZM51.7391 29.825C51.5471 29.825 51.3871 29.761 51.2591 29.633C51.1311 29.505 51.0671 29.345 51.0671 29.153C51.0671 28.953 51.1311 28.793 51.2591 28.673C51.3871 28.545 51.5471 28.481 51.7391 28.481C51.9311 28.481 52.0911 28.545 52.2191 28.673C52.3471 28.793 52.4111 28.953 52.4111 29.153C52.4111 29.345 52.3471 29.505 52.2191 29.633C52.0911 29.761 51.9311 29.825 51.7391 29.825ZM51.4031 36.989C51.3231 36.989 51.2831 36.949 51.2831 36.869V31.037C51.2831 30.957 51.3231 30.917 51.4031 30.917H52.0151C52.0951 30.917 52.1351 30.957 52.1351 31.037V36.869C52.1351 36.949 52.0951 36.989 52.0151 36.989H51.4031ZM58.9377 32.441C59.0577 32.825 59.1177 33.333 59.1177 33.965C59.1177 34.605 59.0657 35.101 58.9617 35.453C58.8177 35.965 58.5537 36.369 58.1697 36.665C57.7937 36.953 57.3177 37.097 56.7417 37.097C56.4297 37.097 56.1417 37.037 55.8777 36.917C55.6137 36.789 55.3937 36.609 55.2177 36.377C55.2017 36.361 55.1857 36.357 55.1697 36.365C55.1617 36.365 55.1577 36.373 55.1577 36.389V39.209C55.1577 39.289 55.1177 39.329 55.0377 39.329H54.4257C54.3457 39.329 54.3057 39.289 54.3057 39.209V31.049C54.3057 30.969 54.3457 30.929 54.4257 30.929H55.0377C55.1177 30.929 55.1577 30.969 55.1577 31.049V31.553C55.1577 31.569 55.1617 31.581 55.1697 31.589C55.1857 31.589 55.2017 31.581 55.2177 31.565C55.3937 31.333 55.6097 31.153 55.8657 31.025C56.1297 30.897 56.4217 30.833 56.7417 30.833C57.3017 30.833 57.7697 30.977 58.1457 31.265C58.5297 31.553 58.7937 31.945 58.9377 32.441ZM57.9897 35.477C58.0777 35.301 58.1417 35.105 58.1817 34.889C58.2297 34.665 58.2537 34.357 58.2537 33.965C58.2537 33.589 58.2377 33.297 58.2057 33.089C58.1737 32.873 58.1177 32.681 58.0377 32.513C57.9417 32.225 57.7697 31.997 57.5217 31.829C57.2817 31.661 56.9937 31.577 56.6577 31.577C56.3377 31.577 56.0697 31.661 55.8537 31.829C55.6377 31.997 55.4777 32.221 55.3737 32.501C55.3017 32.661 55.2497 32.849 55.2177 33.065C55.1857 33.281 55.1697 33.581 55.1697 33.965C55.1697 34.349 55.1857 34.653 55.2177 34.877C55.2497 35.093 55.3057 35.285 55.3857 35.453C55.4817 35.725 55.6377 35.945 55.8537 36.113C56.0777 36.273 56.3417 36.353 56.6457 36.353C56.9657 36.353 57.2417 36.273 57.4737 36.113C57.7137 35.953 57.8857 35.741 57.9897 35.477ZM65.5372 37.097C64.9612 37.097 64.4652 36.949 64.0492 36.653C63.6412 36.349 63.3612 35.941 63.2092 35.429C63.1052 35.077 63.0532 34.581 63.0532 33.941C63.0532 33.365 63.1052 32.877 63.2092 32.477C63.3532 31.981 63.6332 31.585 64.0492 31.289C64.4652 30.985 64.9612 30.833 65.5372 30.833C66.1212 30.833 66.6252 30.981 67.0492 31.277C67.4812 31.573 67.7612 31.941 67.8892 32.381C67.9292 32.525 67.9532 32.645 67.9612 32.741V32.765C67.9612 32.821 67.9252 32.857 67.8532 32.873L67.2532 32.957H67.2292C67.1732 32.957 67.1372 32.921 67.1212 32.849L67.0852 32.669C67.0132 32.365 66.8372 32.109 66.5572 31.901C66.2772 31.685 65.9372 31.577 65.5372 31.577C65.1372 31.577 64.8012 31.685 64.5292 31.901C64.2652 32.109 64.0932 32.389 64.0132 32.741C63.9412 33.045 63.9052 33.449 63.9052 33.953C63.9052 34.481 63.9412 34.889 64.0132 35.177C64.0932 35.537 64.2652 35.825 64.5292 36.041C64.8012 36.249 65.1372 36.353 65.5372 36.353C65.9292 36.353 66.2652 36.253 66.5452 36.053C66.8332 35.845 67.0132 35.581 67.0852 35.261V35.213L67.0972 35.165C67.1052 35.085 67.1532 35.053 67.2412 35.069L67.8292 35.165C67.9092 35.181 67.9452 35.225 67.9372 35.297L67.8892 35.537C67.7692 36.001 67.4932 36.377 67.0612 36.665C66.6292 36.953 66.1212 37.097 65.5372 37.097ZM71.7604 37.097C71.1844 37.097 70.6884 36.949 70.2724 36.653C69.8564 36.357 69.5684 35.949 69.4084 35.429C69.2964 35.061 69.2404 34.569 69.2404 33.953C69.2404 33.337 69.2964 32.849 69.4084 32.489C69.5604 31.977 69.8444 31.573 70.2604 31.277C70.6764 30.981 71.1804 30.833 71.7724 30.833C72.3404 30.833 72.8284 30.981 73.2364 31.277C73.6524 31.573 73.9364 31.973 74.0884 32.477C74.2004 32.821 74.2564 33.313 74.2564 33.953C74.2564 34.601 74.2004 35.093 74.0884 35.429C73.9364 35.949 73.6524 36.357 73.2364 36.653C72.8284 36.949 72.3364 37.097 71.7604 37.097ZM71.7604 36.353C72.1444 36.353 72.4724 36.249 72.7444 36.041C73.0164 35.825 73.2004 35.537 73.2964 35.177C73.3684 34.889 73.4044 34.485 73.4044 33.965C73.4044 33.437 73.3724 33.033 73.3084 32.753C73.2124 32.393 73.0244 32.109 72.7444 31.901C72.4724 31.685 72.1404 31.577 71.7484 31.577C71.3564 31.577 71.0244 31.685 70.7524 31.901C70.4804 32.109 70.2964 32.393 70.2004 32.753C70.1364 33.033 70.1044 33.437 70.1044 33.965C70.1044 34.493 70.1364 34.897 70.2004 35.177C70.2884 35.537 70.4684 35.825 70.7404 36.041C71.0204 36.249 71.3604 36.353 71.7604 36.353ZM78.5034 30.845C79.1434 30.845 79.6514 31.033 80.0274 31.409C80.4114 31.785 80.6034 32.289 80.6034 32.921V36.881C80.6034 36.961 80.5634 37.001 80.4834 37.001H79.8714C79.7914 37.001 79.7514 36.961 79.7514 36.881V33.089C79.7514 32.649 79.6154 32.289 79.3434 32.009C79.0794 31.729 78.7354 31.589 78.3114 31.589C77.8714 31.589 77.5154 31.725 77.2434 31.997C76.9714 32.269 76.8354 32.625 76.8354 33.065V36.881C76.8354 36.961 76.7954 37.001 76.7154 37.001H76.1034C76.0234 37.001 75.9834 36.961 75.9834 36.881V31.049C75.9834 30.969 76.0234 30.929 76.1034 30.929H76.7154C76.7954 30.929 76.8354 30.969 76.8354 31.049V31.565C76.8354 31.581 76.8394 31.593 76.8474 31.601C76.8634 31.609 76.8754 31.605 76.8834 31.589C77.2354 31.093 77.7754 30.845 78.5034 30.845ZM85.1762 31.517C85.1762 31.597 85.1362 31.637 85.0562 31.637H83.7002C83.6682 31.637 83.6522 31.653 83.6522 31.685V35.225C83.6522 35.609 83.7362 35.881 83.9042 36.041C84.0802 36.193 84.3522 36.269 84.7202 36.269H85.0202C85.1002 36.269 85.1402 36.309 85.1402 36.389V36.881C85.1402 36.961 85.1002 37.001 85.0202 37.001C84.9242 37.009 84.7762 37.013 84.5762 37.013C84.0002 37.013 83.5642 36.905 83.2682 36.689C82.9722 36.473 82.8242 36.073 82.8242 35.489V31.685C82.8242 31.653 82.8082 31.637 82.7762 31.637H82.0442C81.9642 31.637 81.9242 31.597 81.9242 31.517V31.049C81.9242 30.969 81.9642 30.929 82.0442 30.929H82.7762C82.8082 30.929 82.8242 30.913 82.8242 30.881V29.489C82.8242 29.409 82.8642 29.369 82.9442 29.369H83.5322C83.6122 29.369 83.6522 29.409 83.6522 29.489V30.881C83.6522 30.913 83.6682 30.929 83.7002 30.929H85.0562C85.1362 30.929 85.1762 30.969 85.1762 31.049V31.517ZM91.3035 32.945C91.3355 33.169 91.3515 33.449 91.3515 33.785V34.169C91.3515 34.249 91.3115 34.289 91.2315 34.289H87.3555C87.3235 34.289 87.3075 34.305 87.3075 34.337C87.3235 34.777 87.3475 35.061 87.3795 35.189C87.4675 35.549 87.6555 35.833 87.9435 36.041C88.2315 36.249 88.5995 36.353 89.0475 36.353C89.3835 36.353 89.6795 36.277 89.9355 36.125C90.1915 35.973 90.3915 35.757 90.5355 35.477C90.5835 35.405 90.6395 35.389 90.7035 35.429L91.1715 35.705C91.2355 35.745 91.2515 35.801 91.2195 35.873C91.0195 36.257 90.7195 36.561 90.3195 36.785C89.9195 37.001 89.4595 37.109 88.9395 37.109C88.3715 37.101 87.8955 36.965 87.5115 36.701C87.1275 36.437 86.8515 36.069 86.6835 35.597C86.5395 35.213 86.4675 34.661 86.4675 33.941C86.4675 33.605 86.4715 33.333 86.4795 33.125C86.4955 32.909 86.5275 32.717 86.5755 32.549C86.7115 32.029 86.9835 31.613 87.3915 31.301C87.8075 30.989 88.3075 30.833 88.8915 30.833C89.6195 30.833 90.1795 31.017 90.5715 31.385C90.9635 31.753 91.2075 32.273 91.3035 32.945ZM88.8915 31.577C88.4995 31.577 88.1715 31.681 87.9075 31.889C87.6515 32.089 87.4835 32.361 87.4035 32.705C87.3555 32.873 87.3235 33.145 87.3075 33.521C87.3075 33.553 87.3235 33.569 87.3555 33.569H90.4635C90.4955 33.569 90.5115 33.553 90.5115 33.521C90.4955 33.161 90.4715 32.905 90.4395 32.753C90.3515 32.393 90.1715 32.109 89.8995 31.901C89.6355 31.685 89.2995 31.577 88.8915 31.577ZM95.5659 30.845C96.2059 30.845 96.7139 31.033 97.0899 31.409C97.4739 31.785 97.6659 32.289 97.6659 32.921V36.881C97.6659 36.961 97.6259 37.001 97.5459 37.001H96.9339C96.8539 37.001 96.8139 36.961 96.8139 36.881V33.089C96.8139 32.649 96.6779 32.289 96.4059 32.009C96.1419 31.729 95.7979 31.589 95.3739 31.589C94.9339 31.589 94.5779 31.725 94.3059 31.997C94.0339 32.269 93.8979 32.625 93.8979 33.065V36.881C93.8979 36.961 93.8579 37.001 93.7779 37.001H93.1659C93.0859 37.001 93.0459 36.961 93.0459 36.881V31.049C93.0459 30.969 93.0859 30.929 93.1659 30.929H93.7779C93.8579 30.929 93.8979 30.969 93.8979 31.049V31.565C93.8979 31.581 93.9019 31.593 93.9099 31.601C93.9259 31.609 93.9379 31.605 93.9459 31.589C94.2979 31.093 94.8379 30.845 95.5659 30.845ZM102.239 31.517C102.239 31.597 102.199 31.637 102.119 31.637H100.763C100.731 31.637 100.715 31.653 100.715 31.685V35.225C100.715 35.609 100.799 35.881 100.967 36.041C101.143 36.193 101.415 36.269 101.783 36.269H102.083C102.163 36.269 102.203 36.309 102.203 36.389V36.881C102.203 36.961 102.163 37.001 102.083 37.001C101.987 37.009 101.839 37.013 101.639 37.013C101.063 37.013 100.627 36.905 100.331 36.689C100.035 36.473 99.8867 36.073 99.8867 35.489V31.685C99.8867 31.653 99.8707 31.637 99.8387 31.637H99.1067C99.0267 31.637 98.9867 31.597 98.9867 31.517V31.049C98.9867 30.969 99.0267 30.929 99.1067 30.929H99.8387C99.8707 30.929 99.8867 30.913 99.8867 30.881V29.489C99.8867 29.409 99.9267 29.369 100.007 29.369H100.595C100.675 29.369 100.715 29.409 100.715 29.489V30.881C100.715 30.913 100.731 30.929 100.763 30.929H102.119C102.199 30.929 102.239 30.969 102.239 31.049V31.517ZM104.582 36.977C104.382 36.977 104.218 36.913 104.09 36.785C103.97 36.657 103.91 36.497 103.91 36.305C103.91 36.105 103.97 35.945 104.09 35.825C104.218 35.697 104.382 35.633 104.582 35.633C104.774 35.633 104.934 35.697 105.062 35.825C105.19 35.945 105.254 36.105 105.254 36.305C105.254 36.497 105.19 36.657 105.062 36.785C104.934 36.913 104.774 36.977 104.582 36.977Z" fill="white"/>
</svg>
